REM DIRINDEX 1\2,1\3,1\4,1\5,1\6,1\7,1\8
REM DIRNAME cjc150,folder01,folder02,folder03,folder04,folder05,folder06,folder07
TITLE ""
FILE "010 でる文40.mp3" MP3
  TRACK 01 AUDIO
    TITLE "0:"
    INDEX 01 00:00:00
  TRACK 02 AUDIO
    TITLE "8:cjc150_1857"
    INDEX 01 00:00:01
  TRACK 03 AUDIO
    TITLE "0:"
    INDEX 01 00:01:50
  TRACK 04 AUDIO
    TITLE "2:cjc150_1858"
    INDEX 01 00:02:36
  TRACK 05 AUDIO
    TITLE "0:"
    INDEX 01 00:08:11
  TRACK 06 AUDIO
    TITLE "8:cjc150_1859"
    INDEX 01 00:09:44
  TRACK 07 AUDIO
    TITLE "0:"
    INDEX 01 00:12:20
  TRACK 08 AUDIO
    TITLE "3:cjc150_1860"
    INDEX 01 00:13:06
  TRACK 09 AUDIO
    TITLE "3:cjc150_1861"
    INDEX 01 00:14:70
  TRACK 10 AUDIO
    TITLE "3:cjc150_1862"
    INDEX 01 00:16:55
  TRACK 11 AUDIO
    TITLE "3:cjc150_1863"
    INDEX 01 00:18:15
  TRACK 12 AUDIO
    TITLE "3:cjc150_1864"
    INDEX 01 00:19:36
  TRACK 13 AUDIO
    TITLE "3:cjc150_1865"
    INDEX 01 00:21:27
  TRACK 14 AUDIO
    TITLE "3:cjc150_1866"
    INDEX 01 00:23:10
  TRACK 15 AUDIO
    TITLE "3:cjc150_1867"
    INDEX 01 00:24:43
  TRACK 16 AUDIO
    TITLE "3:cjc150_1868"
    INDEX 01 00:25:70
  TRACK 17 AUDIO
    TITLE "3:cjc150_1869"
    INDEX 01 00:27:43
  TRACK 18 AUDIO
    TITLE "8:cjc150_1870"
    INDEX 01 00:29:13
  TRACK 19 AUDIO
    TITLE "0:"
    INDEX 01 00:31:65
  TRACK 20 AUDIO
    TITLE "4:cjc150_1871"
    INDEX 01 00:32:48
  TRACK 21 AUDIO
    TITLE "4:cjc150_1872"
    INDEX 01 00:35:14
  TRACK 22 AUDIO
    TITLE "4:cjc150_1873"
    INDEX 01 00:38:10
  TRACK 23 AUDIO
    TITLE "4:cjc150_1874"
    INDEX 01 00:40:03
  TRACK 24 AUDIO
    TITLE "4:cjc150_1875"
    INDEX 01 00:42:27
  TRACK 25 AUDIO
    TITLE "4:cjc150_1876"
    INDEX 01 00:44:63
  TRACK 26 AUDIO
    TITLE "8:cjc150_1877"
    INDEX 01 00:47:19
  TRACK 27 AUDIO
    TITLE "0:"
    INDEX 01 00:50:11
  TRACK 28 AUDIO
    TITLE "5:cjc150_1878"
    INDEX 01 00:50:70
  TRACK 29 AUDIO
    TITLE "5:cjc150_1879"
    INDEX 01 00:54:19
  TRACK 30 AUDIO
    TITLE "5:cjc150_1880"
    INDEX 01 00:56:63
  TRACK 31 AUDIO
    TITLE "5:cjc150_1881"
    INDEX 01 00:58:52
  TRACK 32 AUDIO
    TITLE "5:cjc150_1882"
    INDEX 01 01:00:31
  TRACK 33 AUDIO
    TITLE "5:cjc150_1883"
    INDEX 01 01:01:36
  TRACK 34 AUDIO
    TITLE "5:cjc150_1884"
    INDEX 01 01:03:53
  TRACK 35 AUDIO
    TITLE "5:cjc150_1885"
    INDEX 01 01:05:15
  TRACK 36 AUDIO
    TITLE "5:cjc150_1886"
    INDEX 01 01:06:36
  TRACK 37 AUDIO
    TITLE "5:cjc150_1887"
    INDEX 01 01:08:17
  TRACK 38 AUDIO
    TITLE "5:cjc150_1888"
    INDEX 01 01:10:63
  TRACK 39 AUDIO
    TITLE "5:cjc150_1889"
    INDEX 01 01:12:56
  TRACK 40 AUDIO
    TITLE "5:cjc150_1890"
    INDEX 01 01:14:31
  TRACK 41 AUDIO
    TITLE "5:cjc150_1891"
    INDEX 01 01:15:50
  TRACK 42 AUDIO
    TITLE "5:cjc150_1892"
    INDEX 01 01:17:65
  TRACK 43 AUDIO
    TITLE "5:cjc150_1893"
    INDEX 01 01:19:23
  TRACK 44 AUDIO
    TITLE "5:cjc150_1894"
    INDEX 01 01:20:48
  TRACK 45 AUDIO
    TITLE "5:cjc150_1895"
    INDEX 01 01:22:21
  TRACK 46 AUDIO
    TITLE "5:cjc150_1896"
    INDEX 01 01:24:53
  TRACK 47 AUDIO
    TITLE "5:cjc150_1897"
    INDEX 01 01:26:25
  TRACK 48 AUDIO
    TITLE "8:cjc150_1898"
    INDEX 01 01:27:65
  TRACK 49 AUDIO
    TITLE "0:"
    INDEX 01 01:30:46
  TRACK 50 AUDIO
    TITLE "6:cjc150_1899"
    INDEX 01 01:31:34
  TRACK 51 AUDIO
    TITLE "6:cjc150_1900"
    INDEX 01 01:34:36
  TRACK 52 AUDIO
    TITLE "6:cjc150_1901"
    INDEX 01 01:37:60
  TRACK 53 AUDIO
    TITLE "6:cjc150_1902"
    INDEX 01 01:40:25
  TRACK 54 AUDIO
    TITLE "6:cjc150_1903"
    INDEX 01 01:42:57
  TRACK 55 AUDIO
    TITLE "6:cjc150_1904"
    INDEX 01 01:44:36
  TRACK 56 AUDIO
    TITLE "6:cjc150_1905"
    INDEX 01 01:47:21
  TRACK 57 AUDIO
    TITLE "6:cjc150_1906"
    INDEX 01 01:49:14
  TRACK 58 AUDIO
    TITLE "6:cjc150_1907"
    INDEX 01 01:51:09
  TRACK 59 AUDIO
    TITLE "6:cjc150_1908"
    INDEX 01 01:53:23
  TRACK 60 AUDIO
    TITLE "6:cjc150_1909"
    INDEX 01 01:56:45
  TRACK 61 AUDIO
    TITLE "6:cjc150_1910"
    INDEX 01 01:59:06
  TRACK 62 AUDIO
    TITLE "8:cjc150_1911"
    INDEX 01 02:00:61
  TRACK 63 AUDIO
    TITLE "0:"
    INDEX 01 02:02:40
  TRACK 64 AUDIO
    TITLE "7:cjc150_1912"
    INDEX 01 02:03:34
  TRACK 65 AUDIO
    TITLE "7:cjc150_1913"
    INDEX 01 02:09:07
  TRACK 66 AUDIO
    TITLE "0:"
    INDEX 01 02:14:53
